<svg width="24" height="24" viewBox="0 0 24 24" fill="none" xmlns="http://www.w3.org/2000/svg">
<path fill-rule="evenodd" clip-rule="evenodd" d="M9.52513 17.6569L12.1768 15.0052L12.8839 15.7123L10.2322 18.364C8.96303 19.6332 6.90524 19.6332 5.63604 18.364C4.36684 17.0948 4.36684 15.037 5.63604 13.7678L8.28769 11.1161L8.9948 11.8232L6.34315 14.4749C5.46447 15.3536 5.46447 16.7782 6.34315 17.6569C7.22183 18.5355 8.64645 18.5355 9.52513 17.6569ZM15.7123 12.8839L15.0052 12.1768L17.6569 9.52513C18.5355 8.64645 18.5355 7.22183 17.6569 6.34315C16.7782 5.46447 15.3536 5.46447 14.4749 6.34315L11.8232 8.9948L11.1161 8.28769L13.7678 5.63604C15.037 4.36684 17.0948 4.36684 18.364 5.63604C19.6332 6.90524 19.6332 8.96303 18.364 10.2322L15.7123 12.8839ZM10.2617 14.5043L14.5043 10.2617L13.7383 9.49567L9.49566 13.7383L10.2617 14.5043Z" fill="black" fill-opacity="0.8"/>
</svg>
